<?xml version="1.0" encoding="UTF-8"?>
<svg width="48px" height="48px" viewBox="0 0 48 48" version="1.1" xmlns="http://www.w3.org/2000/svg" xmlns:xlink="http://www.w3.org/1999/xlink">
    <!-- Generator: sketchtool 61.2 (101010) - https://sketch.com -->
    <title>403B29A2-780D-48B3-A94B-0A973C1F6630</title>
    <desc>Created with sketchtool.</desc>
    <defs>
        <polygon id="path-1" points="0.0121008403 0.0147226891 47.9836639 0.0147226891 47.9836639 48 0.0121008403 48"></polygon>
    </defs>
    <g id="Create-account" stroke="none" stroke-width="1" fill="none" fill-rule="evenodd">
        <g id="1a" transform="translate(-20.000000, -33.000000)">
            <g id="Icons-/-HRB-Logo" transform="translate(20.000000, 33.000000)">
                <g id="hrb_square_green_white_rgb">
                    <g id="Group-3">
                        <mask id="mask-2" fill="white">
                            <use xlink:href="#path-1"></use>
                        </mask>
                        <g id="Clip-2"></g>
                        <polygon id="Fill-1" fill="#14AA40" mask="url(#mask-2)" points="0.0121008403 48 47.9836639 48 47.9836639 0.0147226891 0.0121008403 0.0147226891"></polygon>
                    </g>
                    <path d="M20.4504202,33.7066891 L18.1343193,33.7066891 L17.7670588,33.3087731 C17.2473277,33.6570756 16.5049412,33.8746891 15.7183866,33.8746891 C13.4276975,33.8746891 12.1292773,32.7799664 12.1292773,31.1275966 C12.1292773,29.9386891 12.8978824,29.197916 13.6358319,28.8520336 C13.0804034,28.3393613 12.9602017,27.7669916 12.9602017,27.3989244 C12.9602017,26.0890084 14.021042,25.2219832 15.6724034,25.2219832 C17.1967059,25.2219832 18.288605,26.0295126 18.288605,27.3474958 L18.288605,27.8696471 L16.3056807,27.8696471 L16.3056807,27.4687059 C16.3056807,27.1351261 16.1015798,26.8965378 15.7183866,26.8965378 C15.3632269,26.8965378 15.1264538,27.1121345 15.1264538,27.4311933 C15.1264538,27.7056807 15.2474622,27.883563 15.4346218,28.1146891 L17.3655126,30.2744874 L17.3655126,29.0577479 L19.2056471,29.0577479 L19.2056471,30.354958 C19.2056471,30.8327395 19.1636975,31.4482689 18.8761008,31.9520672 L20.4504202,33.7066891 Z M15.6679664,32.1640336 C16.0428908,32.1640336 16.3954286,32.0335462 16.5319664,31.9383529 C16.2451765,31.6295798 14.8862521,30.1028571 14.8862521,30.1028571 C14.6139832,30.2882017 14.3203361,30.6171429 14.3203361,31.0681008 C14.3203361,31.8373109 15.1028571,32.1640336 15.6679664,32.1640336 L15.6679664,32.1640336 Z M36.5651092,44.3604706 L39.168,44.3604706 L39.168,40.896605 L39.373916,40.896605 L41.0916303,44.3604706 L44.1876303,44.3604706 L41.7612101,39.792605 L43.9411765,36.0409412 L41.0218487,36.0409412 L39.3313613,38.9366723 L39.168,38.9366723 L39.168,36.0409412 L36.5651092,36.0409412 L36.5651092,44.3604706 Z M44.4383193,36.5427227 C44.4383193,36.906958 44.7047395,37.2116975 45.129479,37.2116975 C45.5534118,37.2116975 45.8196303,36.906958 45.8196303,36.5427227 C45.8196303,36.1801008 45.5534118,35.8725378 45.129479,35.8725378 C44.7047395,35.8725378 44.4383193,36.1801008 44.4383193,36.5427227 L44.4383193,36.5427227 Z M45.6701849,36.5427227 C45.6701849,36.8464538 45.4719328,37.0854454 45.129479,37.0854454 C44.7882353,37.0854454 44.5909916,36.8464538 44.5909916,36.5427227 C44.5909916,36.234958 44.7882353,36.0002017 45.129479,36.0002017 C45.4719328,36.0002017 45.6701849,36.234958 45.6701849,36.5427227 L45.6701849,36.5427227 Z M45.2055126,36.8127731 L45.4198992,36.8127731 L45.3085714,36.6167395 C45.3620168,36.5790252 45.3954958,36.5187227 45.3954958,36.4430924 C45.3954958,36.312605 45.3176471,36.2315294 45.1653782,36.2315294 L44.898958,36.2315294 L44.898958,36.8127731 L45.0838992,36.8127731 L45.0838992,36.6518319 L45.1226218,36.6518319 L45.2055126,36.8127731 Z M45.0838992,36.509042 L45.0838992,36.3823866 L45.1409748,36.3823866 C45.1867563,36.3823866 45.2119664,36.407395 45.2119664,36.4430924 C45.2119664,36.4822185 45.1867563,36.509042 45.1409748,36.509042 L45.0838992,36.509042 Z M31.392,42.3628235 C30.5001681,42.3628235 30.0746218,41.7799664 30.0746218,40.8645378 L30.0746218,39.5354622 C30.0746218,38.6200336 30.5001681,38.0369748 31.392,38.0369748 C32.3066218,38.0369748 32.64,38.6658151 32.6871933,39.2748908 L35.1474958,39.2748908 C35.0898151,37.3946218 33.7827227,35.8725378 31.4404034,35.8725378 C28.7546218,35.8725378 27.4725378,37.3946218 27.4725378,39.6542521 L27.4725378,40.746958 C27.4725378,43.0037647 28.7546218,44.5254454 31.4404034,44.5254454 C33.7827227,44.5254454 35.0898151,43.0037647 35.1474958,41.1289412 L32.6871933,41.1289412 C32.64,41.7357983 32.3066218,42.3628235 31.392,42.3628235 L31.392,42.3628235 Z M18.629042,40.7233613 C18.629042,42.9829916 19.9978487,44.5254454 22.5991261,44.5254454 C25.2034286,44.5254454 26.5704202,42.9829916 26.5704202,40.7233613 L26.5704202,39.6774454 C26.5704202,37.4190252 25.2034286,35.8725378 22.5991261,35.8725378 C19.9978487,35.8725378 18.629042,37.4190252 18.629042,39.6774454 L18.629042,40.7233613 L18.629042,40.7233613 Z M23.9685378,40.876437 C23.9685378,41.8382521 23.4806723,42.3628235 22.5991261,42.3628235 C21.7204034,42.3628235 21.2319328,41.8382521 21.2319328,40.876437 L21.2319328,39.5231597 C21.2319328,38.5593277 21.7204034,38.0369748 22.5991261,38.0369748 C23.4806723,38.0369748 23.9685378,38.5593277 23.9685378,39.5231597 L23.9685378,40.876437 L23.9685378,40.876437 Z M11.9677311,44.3604706 L17.9443361,44.3604706 L17.9443361,42.2002689 L14.568,42.2002689 L14.568,36.0409412 L11.9677311,36.0409412 L11.9677311,44.3604706 Z M3.60020168,44.3604706 L7.97465546,44.3604706 C9.87589916,44.3604706 10.8974118,43.3996639 10.8974118,41.9961681 C10.8974118,40.9593277 10.291563,40.2822857 9.2952605,40.0576134 C9.98097479,39.7254454 10.3859496,39.0348908 10.3859496,38.1914622 C10.3859496,36.9436639 9.47152941,36.0409412 7.91455462,36.0409412 L3.60020168,36.0409412 L3.60020168,44.3604706 Z M6.07684034,39.2877983 L6.07684034,37.9516639 L7.28289076,37.9516639 C7.66729412,37.9516639 7.91253782,38.2338151 7.91253782,38.5928067 C7.91253782,38.989916 7.69351261,39.2877983 7.28289076,39.2877983 L6.07684034,39.2877983 Z M6.05647059,42.4503529 L6.05647059,41.0537143 L7.78467227,41.0537143 C8.19892437,41.0537143 8.45284034,41.3713613 8.45284034,41.7420504 C8.45284034,42.1431933 8.21243697,42.4503529 7.7989916,42.4503529 L6.05647059,42.4503529 Z M25.7044034,33.7066891 L28.7326387,33.7066891 L27.0828908,31.0812101 C27.974521,30.5689412 28.5083697,29.6555294 28.5083697,28.4635966 C28.5083697,26.6474622 27.3565714,25.3885714 25.2407395,25.3885714 L21.0810756,25.3885714 L21.0810756,33.7066891 L23.682958,33.7066891 L23.682958,31.5218824 L24.4332101,31.5218824 L25.7044034,33.7066891 Z M23.682958,29.4633277 L23.682958,27.4687059 L24.9440672,27.4687059 C25.5759328,27.4687059 25.9056807,27.8575462 25.9056807,28.4763025 C25.9056807,29.0486723 25.5634286,29.4633277 24.9440672,29.4633277 L23.682958,29.4633277 Z M3.60020168,25.3885714 L6.20510924,25.3885714 L6.20510924,28.3472269 L8.34352941,28.3472269 L8.34352941,25.3885714 L10.9464202,25.3885714 L10.9464202,33.7066891 L8.34352941,33.7066891 L8.34352941,30.7248403 L6.20510924,30.7248403 L6.20510924,33.7066891 L3.60020168,33.7066891 L3.60020168,25.3885714 L3.60020168,25.3885714 Z" id="Fill-4" fill="#FFFFFE"></path>
                </g>
            </g>
        </g>
    </g>
</svg>